# xmcd CD database file
#
# Track frame offsets:
#	150
#	18184
#	29248
#	46369
#	58001
#	77372
#	94870
#	110499
#	123826
#	137804
#	150311
#	170067
#	185668
#	198690
#	218217
#	231922
#
# Disc length: 3228 seconds
#
# Revision: 3
# Processed by: cddbd v1.5PL3 Copyright (c) Steve Scherf et al.
# Submitted via: CDex 1.51
#
DISCID=df0c9a10
DTITLE=Various Artist - Stompin' At The Savoy
DYEAR=2000
DGENRE=Jazz
TTITLE0=Brazil
TTITLE1=Don't Sit Under The Apple Tree (With Anyone Else But Me)
TTITLE2=I Let  A Song Go Out Of My Heart
TTITLE3=I'm Gonna Sit Right Down And Write Myself A Letter
TTITLE4=Sentimental Journey
TTITLE5=Shiny Stockings
TTITLE6=Tea For Two
TTITLE7=(We Kiss) And The Angels Sing
TTITLE8=I Got It Bad And That Ain't Good
TTITLE9=It's Only A Paper Moon
TTITLE10=Stompin' At The Savoy
TTITLE11=Serenade In Blue
TTITLE12=Cherokee
TTITLE13=Tuxedo Junction
TTITLE14=Woodchopper's Ball
TTITLE15=Chattanooga Choo Choo
EXTD=YEAR: 2000
EXTT0=
EXTT1=
EXTT2=
EXTT3=
EXTT4=
EXTT5=
EXTT6=
EXTT7=
EXTT8=
EXTT9=
EXTT10=
EXTT11=
EXTT12=
EXTT13=
EXTT14=
EXTT15=
PLAYORDER=
